<svg xmlns="http://www.w3.org/2000/svg" width="20" height="20" viewBox="0 0 20 20" fill="none"><g clip-path="url(#clip0_134_375)"><path d="M17.2933 7.09305C17.0498 6.97133 10.2307 3.56168 10.6577 3.7752C10.7254 3.54031 10.8412 3.32156 11.042 3.17344C11.49 2.84328 11.7578 2.31398 11.7578 1.75781C11.7578 0.788516 10.9693 0 10 0C9.0307 0 8.24219 0.788516 8.24219 1.75781C8.24219 2.08168 8.50426 2.34375 8.82812 2.34375C9.15199 2.34375 9.41406 2.08168 9.41406 1.75781C9.41406 1.43453 9.67672 1.17188 10 1.17188C10.3233 1.17188 10.5859 1.43453 10.5859 1.75781C10.5859 1.94605 10.4984 2.11832 10.3462 2.23047C9.86473 2.58547 9.55645 3.12004 9.45859 3.71711C9.09074 3.90102 2.58512 7.15379 2.70664 7.09305C2.50813 7.19262 2.38281 7.39516 2.38281 7.61719V9.96094C2.38281 10.2848 2.64488 10.5469 2.96875 10.5469H4.72656V19.4141C4.72656 19.7379 4.98863 20 5.3125 20H14.6875C15.0114 20 15.2734 19.7379 15.2734 19.4141V10.5469H17.0312C17.3551 10.5469 17.6172 10.2848 17.6172 9.96094V7.61719C17.6172 7.39516 17.4919 7.19262 17.2933 7.09305ZM11.7578 6.32C11.7578 7.32785 11.0048 8.25504 9.9073 8.20047C8.97531 8.15422 8.24219 7.37871 8.24219 6.44531V5.63562L10 4.75672L11.7578 5.63562V6.32Z" fill="white"></path></g><defs><clipPath id="clip0_134_375"><rect width="20" height="20" fill="white"></rect></clipPath></defs></svg>