<svg xmlns="http://www.w3.org/2000/svg" width="20" height="20" viewBox="0 0 20 20" fill="none"><g clip-path="url(#clip0_134_384)"><path d="M20 13.3332V14.1666H6.66666V13.3332C6.66666 12.4492 7.01785 11.6013 7.64297 10.9762C8.2681 10.3511 9.11594 9.99991 10 9.99991H16.6667C17.5507 9.99991 18.3986 10.3511 19.0237 10.9762C19.6488 11.6013 20 12.4492 20 13.3332ZM14.1667 17.4999L11.6667 15.8332H6.66666V16.6666C6.66666 17.5506 7.01785 18.3985 7.64297 19.0236C8.2681 19.6487 9.11594 19.9999 10 19.9999H16.6667C17.5507 19.9999 18.3986 19.6487 19.0237 19.0236C19.6488 18.3985 20 17.5506 20 16.6666V15.8332H16.6667L14.1667 17.4999ZM5 13.3332V16.6666C5.00023 17.9032 5.46101 19.0954 6.2925 20.0107H1.7675L0.0491636 6.30741C-0.0221802 5.95289 -0.0138854 5.58695 0.0734487 5.23603C0.160783 4.88511 0.324975 4.55797 0.554164 4.27824C0.787549 3.98642 1.08366 3.75091 1.42052 3.58919C1.75738 3.42747 2.12633 3.34369 2.5 3.34408H8L8.42916 0.0107422H14.1667V1.66658H9.9025L9.68583 3.34408H11.6667C12.0412 3.34408 12.4109 3.42824 12.7486 3.59032C13.0862 3.75241 13.3831 3.98828 13.6173 4.28051C13.8516 4.57275 14.0171 4.91388 14.1018 5.27869C14.1865 5.64351 14.1882 6.0227 14.1067 6.38824L13.8617 8.33324H10C8.67391 8.33324 7.40214 8.86003 6.46446 9.79771C5.52678 10.7354 5 12.0072 5 13.3332ZM9.46916 5.01074L9.25666 6.66658H12.3942L12.465 6.10324C12.5022 5.97036 12.508 5.83067 12.4819 5.69516C12.4559 5.55966 12.3988 5.43205 12.315 5.32241C12.2374 5.22497 12.1388 5.14633 12.0265 5.09236C11.9142 5.03839 11.7912 5.01049 11.6667 5.01074H9.46916ZM7.575 6.66658L7.78833 5.01074H2.5C2.37523 5.01067 2.25204 5.03861 2.13952 5.0925C2.02699 5.1464 1.92801 5.22487 1.84986 5.32213C1.77172 5.41939 1.71641 5.53296 1.68802 5.65445C1.65963 5.77594 1.65888 5.90226 1.68583 6.02408L1.76916 6.66658H7.575Z" fill="white"></path></g><defs><clipPath id="clip0_134_384"><rect width="20" height="20" fill="white"></rect></clipPath></defs></svg>