<svg xmlns="http://www.w3.org/2000/svg" width="20" height="20" viewBox="0 0 20 20" fill="none"><g clip-path="url(#clip0_134_391)"><path d="M7.5 7.91675C7.5 8.32879 7.37781 8.73158 7.1489 9.07419C6.91998 9.41679 6.5946 9.68382 6.21392 9.8415C5.83324 9.99918 5.41436 10.0404 5.01023 9.96005C4.6061 9.87967 4.23489 9.68125 3.94353 9.38989C3.65217 9.09853 3.45375 8.72731 3.37336 8.32319C3.29298 7.91906 3.33423 7.50017 3.49192 7.11949C3.6496 6.73881 3.91663 6.41344 4.25923 6.18452C4.60183 5.9556 5.00462 5.83342 5.41667 5.83342C5.9692 5.83342 6.4991 6.05291 6.88981 6.44361C7.28051 6.83431 7.5 7.36421 7.5 7.91675ZM20 10.0001V8.33342C20 7.44936 19.6488 6.60151 19.0237 5.97639C18.3986 5.35127 17.5507 5.00008 16.6667 5.00008H12.5C11.6159 5.00008 10.7681 5.35127 10.143 5.97639C9.51786 6.60151 9.16667 7.44936 9.16667 8.33342V10.0001H20ZM1.66667 11.6667V2.50008C1.66667 2.27907 1.57887 2.06711 1.42259 1.91083C1.26631 1.75455 1.05435 1.66675 0.833333 1.66675C0.61232 1.66675 0.400358 1.75455 0.244078 1.91083C0.0877974 2.06711 0 2.27907 0 2.50008L0 17.5001C0 17.7211 0.0877974 17.9331 0.244078 18.0893C0.400358 18.2456 0.61232 18.3334 0.833333 18.3334C1.05435 18.3334 1.26631 18.2456 1.42259 18.0893C1.57887 17.9331 1.66667 17.7211 1.66667 17.5001V15.8334H18.3333V17.5001C18.3333 17.7211 18.4211 17.9331 18.5774 18.0893C18.7337 18.2456 18.9457 18.3334 19.1667 18.3334C19.3877 18.3334 19.5996 18.2456 19.7559 18.0893C19.9122 17.9331 20 17.7211 20 17.5001V11.6667H1.66667Z" fill="white"></path></g><defs><clipPath id="clip0_134_391"><rect width="20" height="20" fill="white"></rect></clipPath></defs></svg>