<svg xmlns="http://www.w3.org/2000/svg" width="20" height="20" viewBox="0 0 20 20" fill="none"><g clip-path="url(#clip0_134_388)"><path d="M20 11.25C20 11.5236 19.9461 11.7945 19.8414 12.0473C19.7367 12.3 19.5833 12.5297 19.3898 12.7232C19.1964 12.9166 18.9667 13.0701 18.7139 13.1748C18.4612 13.2795 18.1903 13.3334 17.9167 13.3334H14.5533L11.0317 18.7392C10.8149 19.1237 10.4994 19.4433 10.1178 19.6649C9.73613 19.8866 9.30219 20.0023 8.86084 20C8.50672 20.0001 8.15786 19.9144 7.84413 19.7501C7.53041 19.5859 7.26117 19.3481 7.05948 19.057C6.85779 18.7659 6.72966 18.4303 6.68607 18.0789C6.64247 17.7275 6.68471 17.3707 6.80917 17.0392L8.34917 13.3334H5.00001C4.4124 13.3334 3.83522 13.1781 3.32697 12.8832C2.81871 12.5883 2.39744 12.1643 2.10584 11.6542L0.166673 8.46669C0.0838152 8.3291 0.0293609 8.1763 0.00652479 8.01732C-0.0163114 7.85833 -0.00706664 7.69638 0.0337133 7.54103C0.0744932 7.38568 0.145982 7.24007 0.24396 7.1128C0.341937 6.98553 0.464418 6.87918 0.604173 6.80002C0.825949 6.68374 1.07904 6.64125 1.32663 6.67872C1.57422 6.71619 1.8034 6.83166 1.98084 7.00836L3.16167 8.19002C3.78665 8.81519 4.63436 9.1665 5.51834 9.16669H17.9167C18.1903 9.16669 18.4612 9.22058 18.7139 9.32527C18.9667 9.42997 19.1964 9.58343 19.3898 9.77688C19.5833 9.97034 19.7367 10.2 19.8414 10.4528C19.9461 10.7055 20 10.9764 20 11.25ZM14.7758 7.50002L11.0258 1.26086C10.8094 0.876698 10.4943 0.557297 10.1131 0.335645C9.7319 0.113994 9.29845 -0.00186979 8.85751 2.28202e-05C8.50346 0.000119227 8.15471 0.085987 7.84108 0.250279C7.52746 0.414571 7.25831 0.652397 7.05666 0.943406C6.85501 1.23442 6.72686 1.56995 6.68318 1.92129C6.6395 2.27263 6.68159 2.62933 6.80584 2.96086L8.57084 7.50002H14.7758Z" fill="white"></path></g><defs><clipPath id="clip0_134_388"><rect width="20" height="20" fill="white"></rect></clipPath></defs></svg>