<svg xmlns="http://www.w3.org/2000/svg" width="20" height="20" viewBox="0 0 20 20" fill="none"><g clip-path="url(#clip0_134_380)"><path d="M20 7.91667C20.0018 7.39428 19.8633 6.88098 19.599 6.43042C19.3346 5.97986 18.9541 5.60857 18.4972 5.35534C18.0402 5.10212 17.5237 4.97627 17.0015 4.99093C16.4793 5.00558 15.9707 5.16022 15.5287 5.43868C15.0867 5.71713 14.7276 6.10919 14.4889 6.57387C14.2502 7.03855 14.1407 7.55881 14.1719 8.08027C14.203 8.60174 14.3736 9.10527 14.6659 9.53826C14.9582 9.97124 15.3613 10.3178 15.8333 10.5417V13.3333C15.8333 14.4384 15.3943 15.4982 14.6129 16.2796C13.8315 17.061 12.7717 17.5 11.6667 17.5C10.5616 17.5 9.50179 17.061 8.72039 16.2796C7.93899 15.4982 7.5 14.4384 7.5 13.3333V13.2075C8.91063 12.9175 10.1782 12.15 11.0889 11.0345C11.9997 9.91891 12.4981 8.52347 12.5 7.08333V2.91667C12.5 2.14312 12.1927 1.40125 11.6457 0.854272C11.0987 0.307291 10.3569 0 9.58333 0H7.5V2.5H9.58333C9.69384 2.5 9.79982 2.5439 9.87796 2.62204C9.9561 2.70018 10 2.80616 10 2.91667V7.08333C10 8.0779 9.60491 9.03172 8.90165 9.73498C8.19839 10.4382 7.24456 10.8333 6.25 10.8333C5.25544 10.8333 4.30161 10.4382 3.59835 9.73498C2.89509 9.03172 2.5 8.0779 2.5 7.08333V2.91667C2.5 2.80616 2.5439 2.70018 2.62204 2.62204C2.70018 2.5439 2.80616 2.5 2.91667 2.5H5V0H2.91667C2.14312 0 1.40125 0.307291 0.854272 0.854272C0.307291 1.40125 0 2.14312 0 2.91667L0 7.08333C0.0019317 8.52347 0.500285 9.91891 1.41107 11.0345C2.32185 12.15 3.58937 12.9175 5 13.2075V13.3333C5 15.1014 5.70238 16.7971 6.95262 18.0474C8.20286 19.2976 9.89856 20 11.6667 20C13.4348 20 15.1305 19.2976 16.3807 18.0474C17.631 16.7971 18.3333 15.1014 18.3333 13.3333V10.5417C18.831 10.3066 19.2518 9.93517 19.5468 9.47052C19.8418 9.00587 19.999 8.46706 20 7.91667Z" fill="white"></path></g><defs><clipPath id="clip0_134_380"><rect width="20" height="20" fill="white"></rect></clipPath></defs></svg>